<svg xmlns="http://www.w3.org/2000/svg" viewBox="0 0 870.77 959.93"><title>kotonoha-logo</title><path d="M778.65,126.31v-.19a11.91,11.91,0,0,0-15.93-10.75c-39.27,16.82-75,40.31-104.59,71.27-4.13,4.32-8.06,8.8-12,13.3-3.14,3.59,2,8.63,5.54,5.44,24.08-21.89,50.89-40.49,80.82-53.59,7.32-3.21,14.78-6.32,22.39-8.81a299.93,299.93,0,0,1-6.13,55.63c0,.07.06-.27,0-.07-8.72,38.32-23.64,74.52-46.4,106.77A292.3,292.3,0,0,1,578.61,405a289.31,289.31,0,0,1-89.86,22.09A330.85,330.85,0,0,1,455,330.37c-7.78-42.29-6.23-85.68,2.81-127.62a307.17,307.17,0,0,1,12.7-42.9,321.5,321.5,0,0,1,26.2-54C512,80.81,530.61,57.11,552.41,37.4l5.48-5C571.65,70.58,576,111.86,572.8,152.13c-.33,4.2-.83,8.38-1.3,12.56-.51,4.71,6.64,5.89,7.66,1.24,10-46,11.29-93.82,0-139.76-1.48-6-3.07-11.92-4.74-17.87a11.58,11.58,0,0,0-18.48-5.63,378.79,378.79,0,0,0-57,60.45A285.22,285.22,0,0,0,353.32,49.87C298.4,59,246.56,85.94,206.55,124.49A284.16,284.16,0,0,0,192.5,519.07q6.67,7.43,13.87,14.34c16,15.21,33.42,29.29,52.61,40.31a290.4,290.4,0,0,0,59.54,26.63,259,259,0,0,0,62.42,12.18c58.35,4.7,117.67-8.77,167.94-38.85C598.6,543.93,638.8,499.08,662.23,446a280.5,280.5,0,0,0,23-90.93,307.44,307.44,0,0,0,66.54-95.19,312.41,312.41,0,0,0,26.89-133.59ZM602.33,503.69c-16,16.77-33.13,32-52.67,44.55a263.79,263.79,0,0,1-63.29,29.81A266.51,266.51,0,0,1,385,589.25c-19.92-1.6-40.22-5.24-59.17-11.75a264.53,264.53,0,0,1-134-99.06c-28.74-41.1-45.94-90.77-47.28-141-1.33-49.85,10.42-99.19,35.75-142.33A266.25,266.25,0,0,1,304.16,85.63,269.75,269.75,0,0,1,470.7,71.07q9.58,2.22,19,5.15c-21.58,33-38.57,69.5-47.54,108-5.4,23.19-9.08,46.6-9.92,70.45a347.87,347.87,0,0,0,9.56,93c7.58,31.82,20.34,62.35,36.67,90.64a7.11,7.11,0,0,0,6.59,3.52A307,307,0,0,0,569.23,426c-6.43,5.85-13.14,11.79-19,18.21h0c-1.53,1.7,0,3.6,1.79,3.82s4.45-.35,6.4-.58c3-.35,6-.75,9-1.19,4.65-.68,9.31-1.36,13.91-2.28-5.75,6.65-10.89,13.83-16.33,20.73-3.88,4.93-8,9.76-11.59,14.89a2.64,2.64,0,0,0,2.81,4c14.63-3.93,29.34-9.54,43.4-15.23-4.93,8.65-10,17.72-14.1,26.78-.92,2,1,3.43,2.78,3.21,2-.24,4.33-1.45,6.21-2.15,2.89-1.07,5.75-2.19,8.61-3.34q6.36-2.55,12.66-5.25c-4.27,5.52-8.84,10.75-13.42,16C599.83,506.31,604.7,501,602.33,503.69Zm57.26-99.94a271.69,271.69,0,0,1-38.28,76.48,83.78,83.78,0,0,0-24.7,8.08,81.17,81.17,0,0,0,8-16.22c.9-2.45,2.77-6,2-8.61-.81-2.91-3.53-2.13-5.87-1.72a144.14,144.14,0,0,0-31.15,9.47,126.47,126.47,0,0,0,9.83-12.34q3.13-4.49,6-9.18c1.28-2.11,5.57-7.37,4.26-9.91-.94-3.2-10.24-1.76-12.66-1.6a87.48,87.48,0,0,0-12.65,1.71,75.05,75.05,0,0,0,8.1-7.85q2.16-2.39,4.16-4.93c1.14-1.45,3-3.27,3.53-5.06a309.77,309.77,0,0,0,87.49-51.19,278.32,278.32,0,0,1-8,32.86C658.9,405.91,663.58,390.82,659.59,403.75ZM735,178.18a7.14,7.14,0,0,1,.39,4.08,257.6,257.6,0,0,1-9.66,35.9,247.41,247.41,0,0,1-10.68,25.61q-2.85,5.89-6,11.61c-.8,1.44-1.58,3.86-3.6,3.88a2.53,2.53,0,0,1-2.37-3.44,244.59,244.59,0,0,0,16.34-62.7,255.4,255.4,0,0,0-48,30.41c-2.37,1.88-5.44-1.51-3.37-3.69,16.79-17.69,35.48-33.25,56.74-45.29l.84-.34a7.19,7.19,0,0,1,9.36,4Zm-180.7-68.92c1,17-1.06,33.93-4.09,50.59-.54,3-5.13,2.44-5-.58,1.19-21.69,0-43.19-5.48-64.33-3.66,4-7.16,8.09-10.56,12.3a276.18,276.18,0,0,0-29.34,45.55c-1.42,2.7-5.64.77-4.55-2.06,2.28-5.95,4.65-11.85,7.25-17.66a274.58,274.58,0,0,1,35.2-57.66,7.3,7.3,0,0,1,12.8,3.17,249.78,249.78,0,0,1,3.73,30.69C554.45,111,554.25,107.54,554.35,109.25ZM317.3,325.5c11.17,16.46,23.25,31.92,37.87,45.5a200.8,200.8,0,0,0,46.19,32.13,226.61,226.61,0,0,0,58.86,19.79c2.75.53,6.65.58,8.37,3.17,2.27,3.43-.29,7.31-4,7.8-9.27,1.21-19.32.36-28.52-.92a160.58,160.58,0,0,1-66.63-25.38C341.58,388.7,319.31,362,308.35,330,306.51,324.57,314.09,320.77,317.3,325.5Z" style="fill:#984321"/><path d="M860.77,271.12a10,10,0,0,0-10,10v496L435.39,944.36,20,777.17v-496a10,10,0,0,0-20,0V784a9.92,9.92,0,0,0,6.32,9.22l426.3,166.19a7.62,7.62,0,0,0,5.52,0l426.3-166.19a10,10,0,0,0,6.32-9.24V281.12A10,10,0,0,0,860.77,271.12Z" style="fill:#652e11"/><path d="M325,652.43c5.72,2.53,8.74,9.81,9,15.69.25,5-2,12.17-8.17,11.88-3.43-.16-6.63-3-9.46-4.62q-5.65-3.33-11.4-6.49c-7.61-4.16-15.39-8-23.31-11.53-28.11-12.57-57.81-22.16-88.33-26.59q-11.09-1.61-22.28-2.32-6.06-.39-12.12-.51c-2.84-.06-5.38.16-7.89-1.37-4.81-2.94-7.48-9.09-7.87-14.53-.32-4.52,1.08-10.92,6.18-12.23,3.06-.79,7.06.61,10.08,1.11,3.53.58,7.07,1.16,10.6,1.77q11.13,1.91,22.16,4.32c15.07,3.28,30,7.06,44.8,11.5,30.16,9.06,59.21,21.24,88,33.94Zm-134.1-55.87a386.92,386.92,0,0,1,55.16,14q13.78,4.6,27.18,10.22c4.45,1.88,8.8,4.26,13.33,5.93a5.88,5.88,0,0,0,7.33-2.57c3.61-5.77.8-15.35-4.6-19.1-3.45-2.4-8.66-3.26-12.61-4.56q-7.1-2.34-14.22-4.66c-18.52-6-37.09-11.88-55.75-17.43-5.07-1.51-10.13-3-15.19-4.56-3.44-1.05-6.41-.85-8.37,2.56-3.58,6.23-.13,18.78,7.72,20.17Zm100.33,74C271.55,663.84,251.92,657,232,651c-9.87-3-19.8-5.75-29.82-8.2-4.82-1.18-9.65-2.3-14.48-3.44-3.3-.78-6.12-1-8.22,2.16-4,6-.83,16.91,5.61,20a16.47,16.47,0,0,0,5.27,1q3.86.48,7.71,1.08,7.25,1.13,14.42,2.66a342.78,342.78,0,0,1,58.36,18.28q7.79,3.18,15.44,6.7c3.56,1.63,7.47,4,10.71.46,5.3-5.79,1.48-18.78-5.81-21.25ZM291.09,704c-19.7-6.26-39.28-12.91-59-19-9.69-3-19.42-5.81-29.22-8.37-4.82-1.26-9.65-2.47-14.47-3.7-3.44-.88-6.48-1.45-8.78,1.86-4.12,5.91-1,16.52,5.13,19.93,3.53,2,8.87,1.75,12.8,2.43q7.27,1.24,14.46,2.85a395.19,395.19,0,0,1,58.53,18.34q7.93,3.12,15.74,6.54c3.65,1.6,7.64,4,10.87.31,5.17-5.84,1.34-18.85-6-21.19Zm0,32.88c4.82,1.29,7.47,7.26,7.89,11.79.29,3.11-.42,6.33-.8,9.41q-.64,5.14-1.31,10.27c-.89,6.83-1.82,13.66-2.73,20.49-.68,5.15-1.91,11.81-8.74,9.55-5.43-1.79-10.68-4.58-16-6.65q-8.66-3.35-17.43-6.4a315.36,315.36,0,0,0-34.59-10.08,173.19,173.19,0,0,0-17.87-3c-4.78-.55-9.71-.19-13.16-4.06-3.68-4.13-3.72-9.47-4.08-14.69-.43-6.28-.85-12.57-1.31-18.85s-1.2-12.6-1.58-18.9c-.22-3.55.79-8.74,5.21-9,2.73-.18,6.05,1.2,8.7,1.82q4.28,1,8.55,2.07,9,2.25,18,4.78c23.89,6.71,47.3,15.14,71.28,21.53Zm-11.75,37.37q.79-7,1.53-14.08a20.47,20.47,0,0,0,.34-3.25c-.12-1.59-.32-1.27-1.9-1.91q-3-1.23-6-2.42-12.63-5-25.54-9.17a448.6,448.6,0,0,0-52.06-13.76q.63,5.78,1.25,11.56l.59,5.5c.06.55,0,2.4.3,2.75s2.14.43,2.6.53q10.26,2.09,20.38,4.79c14.18,3.77,28.14,8.31,42,13.25C266.78,769.51,273.46,772,279.36,774.27Z" style="fill:#652e11"/><path d="M707.65,730.6c-3.68-1.61-8.71.86-12.43,1.39a104.46,104.46,0,0,1-13.83.92,76.13,76.13,0,0,1-33.57-10c-2.12-1.41-4.2-2.87-6.26-4.39a342.69,342.69,0,0,1,37-8.09c6.21-1,12.44-1.82,18.72-2.38,5.11-.45,8.86-.92,12-5.33,3.9-5.4,7.06-20.67-2.76-22.3-2.3-.38-4.71.65-6.91,1.21-3.13.79-6.27,1.56-9.41,2.32-5.94,1.45-11.89,2.89-17.81,4.44-14,3.65-27.78,7.75-41.5,12.19q-.11-4.15-.25-8.3c12.07-4,24.17-7.89,36.38-11.43,9-2.59,23.37-2.91,25.24-14.5.78-4.81-1.46-9.83-7-8.94s-11.19,3.22-16.55,4.91c-12.1,3.8-24.14,7.79-36.18,11.79-13.86,4.6-27.71,9.23-41.69,13.44-2.14.51-4.59.89-6.14-1-1.25-1.54-1.38-3.89-1.46-5.78-.23-5.35,0-10.77,0-16.13q13.54-5.49,27.35-10.25c0,5.45-1.91,19.62,7.21,18.13,4.19-.68,8.38-2.5,12.39-3.83,4.24-1.4,8.49-2.81,12.75-4.17s8.55-2.71,12.84-4c3.73-1.14,7.78-1.93,11.37-3.46,7.47-3.2,7.08-14.16,7.5-21,7.64-1.69,15.65-2.76,23.15-5,5.51-1.65,8.49-7.95,8.58-13.35.08-4.57-2.38-10-7.73-8.9-7.66,1.55-15.26,4.22-22.79,6.31.24-3.65.47-7.81-3.87-9,3.6-2.89,5.12-7.31,5.53-11.76q6.81-1.47,13.67-2.64c4-.68,8.16-.91,12.06-1.86,4.91-1.2,7.75-6.71,8.56-11.31.9-5.12-.87-11.82-7.3-11-4.15.54-8.32,1.94-12.38,2.93q-6.57,1.59-13.13,3.23c.14-3.23,0-7.56-2.94-9.59-1.92-1.31-4.43-1.19-6.56-.53-6.76,2.1-9.19,8.48-9.3,15-7.82,2.08-15.69,4.09-23.43,6.43-5.9,1.79-9.14,8.21-9,14.14.14,5.76,3.81,9.89,9.54,7.61q11.28-4.5,22.92-7.94c.07,4.42,1.41,7.14,3.33,8.45-5.9,2.61-7.35,7.52-7.67,13.53q-13,3.81-26.07,7.91c0-2.22.42-5.23-1.64-7-1.86-1.59-4.59-1.5-6.85-1a14.79,14.79,0,0,0-7.5,3.88c-2.94,2.93-3.37,6.44-3.3,10.42q-13.53,4.53-26.9,9.51c0-.67-1.15-8.81-6.41-9a16.67,16.67,0,0,0,4.81-11q6.62-2.22,13.33-4.17c4.13-1.2,8.51-2,12.56-3.43,4.76-1.69,7.43-6.78,8.18-11.53s-1-11.85-7.29-10.67c-4.43.83-8.87,3-13.1,4.57q-6.58,2.36-13.15,4.78c0-3.06,0-7.25-2.61-9.39-2.1-1.71-5.06-1.33-7.41-.41-7.28,2.85-9.52,9.81-9.17,17-7.69,3-15.43,5.84-23,9-5.67,2.38-8.77,8.85-8.26,14.87s4.74,9.11,10.14,6.32q10.92-5.65,22.27-10.37c.49,4.17,2.25,6.42,4.47,7.17-4.85,3.5-6,8.47-6.05,14.15-6,2.37-12.69,4.31-18.43,7.34-4.43,2.33-6.77,8-6.86,12.78-.08,4.15,2.13,9.89,7.26,9,2.85-.51,5.77-2.51,8.38-3.73q4.81-2.24,9.65-4.42c0,8.63-.24,17.35.3,26,.34,5.4,1.53,11.76,8.09,11.87,5.92.1,12.32-3,17.79-4.81,8.08-2.75,16.15-5.54,24.23-8.28,0,2.75.22,5.5.32,8.25q-17.64,6.09-34.94,13.08-8.62,3.47-17.19,7c-5.59,2.32-11.8,4.21-17.08,7.16-7.17,4-11.18,17.05-5.59,23.75,3,3.6,6.88,2.64,10.45.57q8.17-4.76,16.56-9.11,18.55-9.64,38-17.47C595.3,744,585.58,756.15,573.75,766A141.22,141.22,0,0,1,555.53,779a80.84,80.84,0,0,1-9.11,4.83c-3.2,1.38-6.17,2.82-8.33,5.65-3.59,4.7-5.33,12.12-2.58,17.63a7.53,7.53,0,0,0,4.29,4c3,.94,5.58-.89,8.09-2.31a160.07,160.07,0,0,0,35.6-27.5,217.13,217.13,0,0,0,30.95-41.18q0,15.81-.35,31.61c-.11,5.14-.89,18.34,8.18,16,8.91-2.29,8.92-14.11,9-21.19q.17-16.06.14-32.11c2.61,2.46,5.27,4.81,8,7a87.29,87.29,0,0,0,37.26,15.4,105.35,105.35,0,0,0,18.84.31c3.29-.4,6.72-.21,9.67-2a15.47,15.47,0,0,0,5.92-7.75c1.95-5,2.6-14.23-3.49-16.89Zm-61-79.17c-4.27,1.3-8.54,2.4-12.81,3.68-3.54.85-3.83-3.18-3.84-7.1q12.67-3.91,25.33-7.24c-.13,3-.12,6.44-2.76,8.45-1.72,1.31-3.91,1.6-5.92,2.21Z" style="fill:#652e11"/><path d="M842.15,772.24a4,4,0,0,1-2.94,3.86l-4.45,1.21c-31,8.45-61.92,17.18-92.48,27.17q-32,10.46-63.56,22c-24.28,8.93-48.18,18.78-72,28.86-36.44,15.42-72.2,32.77-107.42,50.79-20.56,10.52-41,21.3-61.34,32.16a5.07,5.07,0,0,1-5.17,0L428.43,936c-25-13.32-50.07-26.46-75.4-39.12q-47.58-23.77-96.48-44.7Q222,837.42,186.63,824.53c-21.77-8-43.72-15.45-65.8-22.55-29.5-9.49-59.38-17.74-89.27-25.88a4,4,0,0,1-2.94-3.86l.5-505.59c0-4.51,7-4.51,7,0l.5,502.52,4.82,1.29c31.11,8.33,62.08,17.09,92.74,27q31.18,10,61.93,21.24c23.95,8.69,47.52,18.3,71,28.12,35.52,14.83,70.43,31.48,104.81,48.79,21.27,10.71,42.38,21.72,63.45,32.83l4.37-2.3q38.59-20.34,77.64-39.73,46-22.68,93.28-42.55,34.7-14.65,70.16-27.39c21.23-7.69,42.65-14.77,64.14-21.7,29.43-9.49,59.31-17.56,89.17-25.55l.5-502.52c0-4.51,7-4.51,7,0ZM825.92,262.7c-.85-4.78-6.38-2.88-9.48-2.27l-14,2.8q-14.57,2.93-29.12,6-7,1.47-14,3c-1.65.35-4.63.38-5.49,2.17a2.55,2.55,0,0,0,2,3.57c1.95.34,4.78-.72,6.71-1l7.68-1.27q7.14-1.17,14.28-2.32,16.75-2.68,33.53-5.22l.49,489.63c-28.53,6.29-57,12.68-85.38,19.73C706.66,784,680.32,791,654.24,798.87c-17,5.13-33.88,10.57-50.56,16.62a613,613,0,0,0-57.78,23.93,486.28,486.28,0,0,0-92.56,58.28q-6.12,4.89-12.1,10L438.39,777c-.09-3.77-5.92-3.81-6,0l-2.85,130.67c-29.64-25-61.64-46.87-96.37-64.2a612.29,612.29,0,0,0-60.47-25.89c-14.28-5.29-28.71-10.13-43.23-14.72-25.36-8-51-15-76.77-21.63-32.21-8.34-64.69-15.64-97.18-22.8l-3.21-.71.49-489.63q27.8,4.23,55.53,8.84c2.25.38,10.34,3.16,10.05-1.4-.13-2-2-2.31-3.59-2.65l-7-1.5q-13.47-2.87-27-5.62-15.65-3.2-31.33-6.27a4,4,0,0,0-4.68,3.93q0,6.55,0,13.1l0,36.17.05,53.41.07,65.2L45,503l.07,72.15.07,67.29.06,56.88,0,40.92,0,19.42v.85A3.51,3.51,0,0,0,48,763.93h0c27.54,6.27,55.08,12.55,82.44,19.54,27.16,6.94,54.23,14.2,81,22.44,17.67,5.43,35.25,11.21,52.59,17.62a619.88,619.88,0,0,1,58.53,24.84,474.45,474.45,0,0,1,96.47,63.41c4.23,3.57,8.41,7.2,12.59,10.83a5.1,5.1,0,0,0,7.37,0c30.44-26.56,62.72-50.26,98.59-69a586.91,586.91,0,0,1,63.73-28.13c14.1-5.34,28.36-10.23,42.7-14.87,26.31-8.52,53-16,79.71-23,31.79-8.3,63.77-15.77,95.8-23.07l3.15-.72a3.51,3.51,0,0,0,2.75-3.42V747.23l0-36.32.05-53.52.07-65.27.07-71.76.07-72.13.07-67.23.06-56.78,0-40.78q0-9.62,0-19.24,0-.42,0-.83a4,4,0,0,0-.06-.68ZM435.41,623.47a1.25,1.25,0,0,0-1.27,1.23l-1.25,73.15s0,.06,0,.09a2.5,2.5,0,0,0,5-.09l-1.25-73.15A1.25,1.25,0,0,0,435.41,623.47Z" style="fill:#984321"/><path d="M506.69,659.43c2.51,79.91-86,133.19-154.88,114.85a93.84,93.84,0,0,1-20.93-1,1.5,1.5,0,0,1,.32-3,89.71,89.71,0,0,0,20-.72c8-12.87,18.8-23.59,31.11-32.31,21.47-15.2,46.34-24.33,69.69-36.1,11.06-5.57,21.89-11.8,31.44-19.75a92.64,92.64,0,0,0,12.68-12.74,81.54,81.54,0,0,0,5.45-7.56c.64-1,1.37-3.12,2.55-3.58A1.84,1.84,0,0,1,506.69,659.43ZM358.26,772.14a31.35,31.35,0,0,0,5.73-.71c5.19-.74,10.36-1.67,15.47-2.83a217.28,217.28,0,0,0,32.77-10.21c18.72-7.5,36.61-18.17,50.93-32.48a108.31,108.31,0,0,0,9.11-10.23c1.24-1.6,2.45-3.22,3.6-4.9.65-1,2.34-2.63,1.91-3.91-1.08-3.15-4.8,1.91-5.49,2.65-3.32,3.54-6.82,6.9-10.45,10.12-29.22,26-66.7,40.56-104.28,49.57C355.4,769.72,356.62,772.05,358.26,772.14Z" style="fill:#652e11"/><path d="M496.13,346.32c-2.37-8.41-3.89-17.05-6.3-25.47a281.08,281.08,0,0,0-9.45-26.94c-1-2.55-3.12-6.16-2.32-9,1.12-4,5.72-4.61,8.64-2.2,6.94,5.73,11.83,15.2,14.56,23.58.73,2,1.25,4.15,1.79,6.26,2.37,11.22,2.63,23.37-1.93,34.11A2.69,2.69,0,0,1,496.13,346.32Z" style="fill:#652e11"/><path d="M550,370.62c5.61-10.25,15.22-17.59,25.51-22.73,2-.89,4-1.8,6-2.49a56,56,0,0,1,27.87-3.21,5.17,5.17,0,0,1,4.11,6.31c-.56,2.28-2.35,3.3-4.39,4-6.56,2.28-13.3,4-19.86,6.32-12.4,4.3-23.84,10.44-35.9,15.5A2.69,2.69,0,0,1,550,370.62Z" style="fill:#652e11"/><path d="M510.4,432l-24.71,2.36a1.24,1.24,0,0,1-1.22-.66l-11.49-22a1.23,1.23,0,0,1,.55-1.69,26.92,26.92,0,0,1,38,20.61A1.23,1.23,0,0,1,510.4,432Z" style="fill:#652e11"/></svg>